<svg xmlns="http://www.w3.org/2000/svg" xmlns:xlink="http://www.w3.org/1999/xlink" width="653" zoomAndPan="magnify" viewBox="0 0 489.75 306.749988" height="409" preserveAspectRatio="xMidYMid meet" version="1.0"><defs><clipPath id="42719f4601"><path d="M 0.0742188 183.515625 L 70.515625 183.515625 L 70.515625 265.199219 L 0.0742188 265.199219 Z M 0.0742188 183.515625 " clip-rule="nonzero"/></clipPath><clipPath id="292a8185c8"><path d="M 78.230469 183.515625 L 152.320312 183.515625 L 152.320312 265.515625 L 78.230469 265.515625 Z M 78.230469 183.515625 " clip-rule="nonzero"/></clipPath><clipPath id="0e4fb3714a"><path d="M 114.949219 265.347656 C 108.589844 265.347656 103.101562 264.453125 98.484375 262.671875 C 93.867188 260.886719 90.054688 258.402344 87.050781 255.222656 C 84.046875 252.042969 81.824219 248.253906 80.386719 243.855469 C 78.949219 239.457031 78.230469 234.597656 78.230469 229.285156 L 78.230469 183.515625 L 98.617188 183.515625 L 98.617188 227.585938 C 98.617188 231.246094 99.027344 234.359375 99.855469 236.929688 C 100.683594 239.5 101.816406 241.589844 103.253906 243.203125 C 104.691406 244.8125 106.433594 245.964844 108.480469 246.664062 C 110.527344 247.363281 112.769531 247.707031 115.210938 247.707031 C 120.175781 247.707031 124.203125 246.1875 127.296875 243.136719 C 130.386719 240.085938 131.933594 234.902344 131.933594 227.585938 L 131.933594 183.515625 L 152.320312 183.515625 L 152.320312 229.285156 C 152.320312 234.597656 151.578125 239.476562 150.097656 243.921875 C 148.617188 248.363281 146.351562 252.175781 143.304688 255.351562 C 140.253906 258.535156 136.378906 260.996094 131.675781 262.734375 C 126.96875 264.476562 121.394531 265.347656 114.949219 265.347656 Z M 114.949219 265.347656 " clip-rule="nonzero"/></clipPath><clipPath id="6a647db331"><path d="M 0.230469 0.515625 L 74.320312 0.515625 L 74.320312 82.464844 L 0.230469 82.464844 Z M 0.230469 0.515625 " clip-rule="nonzero"/></clipPath><clipPath id="2114bf4136"><path d="M 36.949219 82.347656 C 30.589844 82.347656 25.101562 81.453125 20.484375 79.671875 C 15.867188 77.886719 12.054688 75.402344 9.050781 72.222656 C 6.046875 69.042969 3.824219 65.253906 2.386719 60.855469 C 0.949219 56.457031 0.230469 51.597656 0.230469 46.285156 L 0.230469 0.515625 L 20.617188 0.515625 L 20.617188 44.585938 C 20.617188 48.246094 21.027344 51.359375 21.855469 53.929688 C 22.683594 56.5 23.816406 58.589844 25.253906 60.203125 C 26.691406 61.8125 28.433594 62.964844 30.480469 63.664062 C 32.527344 64.363281 34.769531 64.707031 37.210938 64.707031 C 42.175781 64.707031 46.203125 63.1875 49.296875 60.136719 C 52.386719 57.085938 53.933594 51.902344 53.933594 44.585938 L 53.933594 0.515625 L 74.320312 0.515625 L 74.320312 46.285156 C 74.320312 51.597656 73.578125 56.476562 72.097656 60.921875 C 70.617188 65.363281 68.351562 69.175781 65.304688 72.351562 C 62.253906 75.535156 58.378906 77.996094 53.675781 79.734375 C 48.96875 81.476562 43.394531 82.347656 36.949219 82.347656 Z M 36.949219 82.347656 " clip-rule="nonzero"/></clipPath><clipPath id="8fc13d00c1"><rect x="0" width="75" y="0" height="83"/></clipPath><clipPath id="598248ffc9"><path d="M 159.640625 183.03125 L 238.328125 183.03125 L 238.328125 265.464844 L 159.640625 265.464844 Z M 159.640625 183.03125 " clip-rule="nonzero"/></clipPath><clipPath id="16d21d0177"><path d="M 247.585938 183.515625 L 267.96875 183.515625 L 267.96875 247.839844 L 247.585938 247.839844 Z M 247.585938 247.839844 L 308.082031 247.839844 L 308.082031 265.347656 L 247.585938 265.347656 Z M 247.585938 247.839844 " clip-rule="nonzero"/></clipPath><clipPath id="a346743b5e"><path d="M 0.585938 0.515625 L 20.96875 0.515625 L 20.96875 64.839844 L 0.585938 64.839844 Z M 0.585938 64.839844 L 61.082031 64.839844 L 61.082031 82.347656 L 0.585938 82.347656 Z M 0.585938 64.839844 " clip-rule="nonzero"/></clipPath><clipPath id="80433a4195"><rect x="0" width="62" y="0" height="83"/></clipPath><clipPath id="dce9d45913"><path d="M 320.035156 183.515625 L 340.417969 183.515625 L 340.417969 265.347656 L 320.035156 265.347656 Z M 320.035156 183.515625 " clip-rule="nonzero"/></clipPath><clipPath id="95835f93bb"><path d="M 0.0351562 0.515625 L 20.417969 0.515625 L 20.417969 82.347656 L 0.0351562 82.347656 Z M 0.0351562 0.515625 " clip-rule="nonzero"/></clipPath><clipPath id="fa6c60cae1"><rect x="0" width="21" y="0" height="83"/></clipPath><clipPath id="16db02ad34"><path d="M 352.355469 183.515625 L 412.984375 183.515625 L 412.984375 200.632812 L 352.355469 200.632812 Z M 352.355469 200.632812 L 372.738281 200.632812 L 372.738281 215.875 L 352.355469 215.875 Z M 352.355469 215.875 L 408.542969 215.875 L 408.542969 232.992188 L 352.355469 232.992188 Z M 352.355469 232.992188 L 372.738281 232.992188 L 372.738281 265.347656 L 352.355469 265.347656 Z M 352.355469 232.992188 " clip-rule="nonzero"/></clipPath><clipPath id="5d93fc1a39"><path d="M 0.355469 0.515625 L 60.984375 0.515625 L 60.984375 17.632812 L 0.355469 17.632812 Z M 0.355469 17.632812 L 20.738281 17.632812 L 20.738281 32.875 L 0.355469 32.875 Z M 0.355469 32.875 L 56.542969 32.875 L 56.542969 49.992188 L 0.355469 49.992188 Z M 0.355469 49.992188 L 20.738281 49.992188 L 20.738281 82.347656 L 0.355469 82.347656 Z M 0.355469 49.992188 " clip-rule="nonzero"/></clipPath><clipPath id="8418f634d3"><rect x="0" width="61" y="0" height="83"/></clipPath><clipPath id="71058b8db6"><path d="M 424.992188 183.515625 L 486.144531 183.515625 L 486.144531 200.632812 L 424.992188 200.632812 Z M 424.992188 200.632812 L 445.375 200.632812 L 445.375 216.070312 L 424.992188 216.070312 Z M 424.992188 216.070312 L 481.570312 216.070312 L 481.570312 232.796875 L 424.992188 232.796875 Z M 424.992188 232.796875 L 445.375 232.796875 L 445.375 248.234375 L 424.992188 248.234375 Z M 424.992188 248.234375 L 489.148438 248.234375 L 489.148438 265.347656 L 424.992188 265.347656 Z M 424.992188 248.234375 " clip-rule="nonzero"/></clipPath><clipPath id="163e8283bf"><path d="M 0.992188 0.515625 L 62.144531 0.515625 L 62.144531 17.632812 L 0.992188 17.632812 Z M 0.992188 17.632812 L 21.375 17.632812 L 21.375 33.070312 L 0.992188 33.070312 Z M 0.992188 33.070312 L 57.570312 33.070312 L 57.570312 49.796875 L 0.992188 49.796875 Z M 0.992188 49.796875 L 21.375 49.796875 L 21.375 65.234375 L 0.992188 65.234375 Z M 0.992188 65.234375 L 65.148438 65.234375 L 65.148438 82.347656 L 0.992188 82.347656 Z M 0.992188 65.234375 " clip-rule="nonzero"/></clipPath><clipPath id="bdedba759a"><rect x="0" width="66" y="0" height="83"/></clipPath><clipPath id="a580d20a18"><path d="M 74.890625 286.113281 L 77.335938 286.113281 L 77.335938 294.28125 L 74.890625 294.28125 Z M 60.972656 286.113281 L 63.417969 286.113281 L 63.417969 294.28125 L 60.972656 294.28125 Z M 60.972656 294.28125 L 77.335938 294.28125 L 77.335938 296.394531 L 60.972656 296.394531 Z M 60.972656 296.394531 L 63.417969 296.394531 L 63.417969 305.9375 L 60.972656 305.9375 Z M 74.890625 296.394531 L 77.335938 296.394531 L 77.335938 305.9375 L 74.890625 305.9375 Z M 74.890625 296.394531 " clip-rule="nonzero"/></clipPath><clipPath id="8413a138a2"><path d="M 14.890625 0.113281 L 17.335938 0.113281 L 17.335938 8.28125 L 14.890625 8.28125 Z M 0.972656 0.113281 L 3.417969 0.113281 L 3.417969 8.28125 L 0.972656 8.28125 Z M 0.972656 8.28125 L 17.335938 8.28125 L 17.335938 10.394531 L 0.972656 10.394531 Z M 0.972656 10.394531 L 3.417969 10.394531 L 3.417969 19.9375 L 0.972656 19.9375 Z M 14.890625 10.394531 L 17.335938 10.394531 L 17.335938 19.9375 L 14.890625 19.9375 Z M 14.890625 10.394531 " clip-rule="nonzero"/></clipPath><clipPath id="42be686020"><rect x="0" width="18" y="0" height="20"/></clipPath><clipPath id="f78c531d00"><path d="M 88.6875 286.175781 L 105.15625 286.175781 L 105.15625 306.378906 L 88.6875 306.378906 Z M 88.6875 286.175781 " clip-rule="nonzero"/></clipPath><clipPath id="4f7c84fb0e"><path d="M 88.6875 298.117188 L 88.6875 286.175781 L 91.136719 286.175781 L 91.136719 298.023438 C 91.136719 301.695312 93.15625 304.054688 96.921875 304.054688 C 100.65625 304.054688 102.707031 301.695312 102.707031 298.023438 L 102.707031 286.175781 L 105.15625 286.175781 L 105.15625 298.117188 C 105.15625 303.074219 102.066406 306.320312 96.921875 306.320312 C 91.75 306.320312 88.6875 303.074219 88.6875 298.117188 Z M 88.6875 298.117188 " clip-rule="nonzero"/></clipPath><clipPath id="0b63c98416"><path d="M 0.6875 0.175781 L 17.15625 0.175781 L 17.15625 20.378906 L 0.6875 20.378906 Z M 0.6875 0.175781 " clip-rule="nonzero"/></clipPath><clipPath id="b6944ada44"><path d="M 0.6875 12.117188 L 0.6875 0.175781 L 3.136719 0.175781 L 3.136719 12.023438 C 3.136719 15.695312 5.15625 18.054688 8.921875 18.054688 C 12.65625 18.054688 14.707031 15.695312 14.707031 12.023438 L 14.707031 0.175781 L 17.15625 0.175781 L 17.15625 12.117188 C 17.15625 17.074219 14.066406 20.320312 8.921875 20.320312 C 3.75 20.320312 0.6875 17.074219 0.6875 12.117188 Z M 0.6875 12.117188 " clip-rule="nonzero"/></clipPath><clipPath id="41cbcf92e9"><rect x="0" width="18" y="0" height="21"/></clipPath><clipPath id="c875884257"><path d="M 116.601562 286.113281 L 133.089844 286.113281 L 133.089844 306.347656 L 116.601562 306.347656 Z M 116.601562 286.113281 " clip-rule="nonzero"/></clipPath><clipPath id="6feecc7cb9"><path d="M 157.78125 286.113281 L 175.769531 286.113281 L 175.769531 306.347656 L 157.78125 306.347656 Z M 157.78125 286.113281 " clip-rule="nonzero"/></clipPath><clipPath id="6a4455f97d"><path d="M 186.558594 286.113281 L 201.566406 286.113281 L 201.566406 288.257812 L 186.558594 288.257812 Z M 186.558594 288.257812 L 189.007812 288.257812 L 189.007812 294.289062 L 186.558594 294.289062 Z M 186.558594 294.289062 L 200.769531 294.289062 L 200.769531 296.40625 L 186.558594 296.40625 Z M 186.558594 296.40625 L 189.007812 296.40625 L 189.007812 303.816406 L 186.558594 303.816406 Z M 186.558594 303.816406 L 202.023438 303.816406 L 202.023438 305.960938 L 186.558594 305.960938 Z M 186.558594 303.816406 " clip-rule="nonzero"/></clipPath><clipPath id="b4a5d3685f"><path d="M 0.558594 0.113281 L 15.566406 0.113281 L 15.566406 2.257812 L 0.558594 2.257812 Z M 0.558594 2.257812 L 3.007812 2.257812 L 3.007812 8.289062 L 0.558594 8.289062 Z M 0.558594 8.289062 L 14.769531 8.289062 L 14.769531 10.40625 L 0.558594 10.40625 Z M 0.558594 10.40625 L 3.007812 10.40625 L 3.007812 17.816406 L 0.558594 17.816406 Z M 0.558594 17.816406 L 16.023438 17.816406 L 16.023438 19.960938 L 0.558594 19.960938 Z M 0.558594 17.816406 " clip-rule="nonzero"/></clipPath><clipPath id="cd94ab3303"><rect x="0" width="17" y="0" height="20"/></clipPath><clipPath id="50733fddf2"><path d="M 226 286.046875 L 243 286.046875 L 243 305.992188 L 226 305.992188 Z M 226 286.046875 " clip-rule="nonzero"/></clipPath><clipPath id="d4bf727405"><path d="M 226.054688 286.113281 L 228.507812 286.113281 L 238.398438 299.007812 C 239.410156 300.355469 240.511719 302.222656 240.511719 302.222656 L 240.511719 286.113281 L 242.964844 286.113281 L 242.964844 305.960938 L 240.453125 305.960938 L 230.742188 293.371094 C 229.546875 291.808594 228.507812 289.941406 228.507812 289.941406 L 228.507812 305.960938 L 226.054688 305.960938 Z M 226.054688 286.113281 " clip-rule="nonzero"/></clipPath><clipPath id="2f80ea4400"><path d="M 0 0.0859375 L 16.996094 0.0859375 L 16.996094 19.992188 L 0 19.992188 Z M 0 0.0859375 " clip-rule="nonzero"/></clipPath><clipPath id="0806015cc8"><path d="M 0.0546875 0.113281 L 2.507812 0.113281 L 12.398438 13.007812 C 13.410156 14.355469 14.511719 16.222656 14.511719 16.222656 L 14.511719 0.113281 L 16.964844 0.113281 L 16.964844 19.960938 L 14.453125 19.960938 L 4.742188 7.371094 C 3.546875 5.808594 2.507812 3.941406 2.507812 3.941406 L 2.507812 19.960938 L 0.0546875 19.960938 Z M 0.0546875 0.113281 " clip-rule="nonzero"/></clipPath><clipPath id="d493f1ad59"><rect x="0" width="17" y="0" height="20"/></clipPath><clipPath id="40cdb034fc"><path d="M 254.613281 286.113281 L 269.621094 286.113281 L 269.621094 288.257812 L 254.613281 288.257812 Z M 254.613281 288.257812 L 257.0625 288.257812 L 257.0625 294.292969 L 254.613281 294.292969 Z M 254.613281 294.292969 L 268.824219 294.292969 L 268.824219 296.40625 L 254.613281 296.40625 Z M 254.613281 296.40625 L 257.0625 296.40625 L 257.0625 303.816406 L 254.613281 303.816406 Z M 254.613281 303.816406 L 270.082031 303.816406 L 270.082031 305.960938 L 254.613281 305.960938 Z M 254.613281 303.816406 " clip-rule="nonzero"/></clipPath><clipPath id="5826f82b51"><path d="M 0.613281 0.113281 L 15.621094 0.113281 L 15.621094 2.257812 L 0.613281 2.257812 Z M 0.613281 2.257812 L 3.0625 2.257812 L 3.0625 8.292969 L 0.613281 8.292969 Z M 0.613281 8.292969 L 14.824219 8.292969 L 14.824219 10.40625 L 0.613281 10.40625 Z M 0.613281 10.40625 L 3.0625 10.40625 L 3.0625 17.816406 L 0.613281 17.816406 Z M 0.613281 17.816406 L 16.082031 17.816406 L 16.082031 19.960938 L 0.613281 19.960938 Z M 0.613281 17.816406 " clip-rule="nonzero"/></clipPath><clipPath id="ac15f46186"><rect x="0" width="17" y="0" height="20"/></clipPath><clipPath id="7fe342fd4c"><path d="M 279.519531 285.84375 L 298.566406 285.84375 L 298.566406 306.371094 L 279.519531 306.371094 Z M 279.519531 285.84375 " clip-rule="nonzero"/></clipPath><clipPath id="0c296c3b55"><path d="M 279.519531 296.09375 C 279.519531 290.386719 283.972656 285.84375 289.894531 285.84375 C 292.566406 285.84375 294.929688 286.765625 296.800781 288.421875 L 295.328125 290.109375 C 293.824219 288.761719 292.042969 288.082031 289.894531 288.082031 C 285.445312 288.082031 282.070312 291.675781 282.070312 296.09375 C 282.070312 300.515625 285.445312 304.105469 289.894531 304.105469 C 292.472656 304.105469 294.714844 302.847656 296.097656 300.976562 L 296.097656 296.800781 L 291.769531 296.800781 L 291.769531 294.714844 L 298.492188 294.714844 L 298.492188 301.867188 C 296.648438 304.628906 293.519531 306.347656 289.894531 306.347656 C 283.972656 306.347656 279.519531 301.804688 279.519531 296.09375 Z M 279.519531 296.09375 " clip-rule="nonzero"/></clipPath><clipPath id="1331b3f7b6"><path d="M 0.519531 0.84375 L 19.566406 0.84375 L 19.566406 21.371094 L 0.519531 21.371094 Z M 0.519531 0.84375 " clip-rule="nonzero"/></clipPath><clipPath id="c63e64729a"><path d="M 0.519531 11.09375 C 0.519531 5.386719 4.972656 0.84375 10.894531 0.84375 C 13.566406 0.84375 15.929688 1.765625 17.800781 3.421875 L 16.328125 5.109375 C 14.824219 3.761719 13.042969 3.082031 10.894531 3.082031 C 6.445312 3.082031 3.070312 6.675781 3.070312 11.09375 C 3.070312 15.515625 6.445312 19.105469 10.894531 19.105469 C 13.472656 19.105469 15.714844 17.847656 17.097656 15.976562 L 17.097656 11.800781 L 12.769531 11.800781 L 12.769531 9.714844 L 19.492188 9.714844 L 19.492188 16.867188 C 17.648438 19.628906 14.519531 21.347656 10.894531 21.347656 C 4.972656 21.347656 0.519531 16.804688 0.519531 11.09375 Z M 0.519531 11.09375 " clip-rule="nonzero"/></clipPath><clipPath id="687f40c79f"><rect x="0" width="20" y="0" height="22"/></clipPath><clipPath id="fd498bbe1c"><path d="M 309.117188 280.589844 L 330.097656 280.589844 L 330.097656 306.070312 L 309.117188 306.070312 Z M 309.117188 280.589844 " clip-rule="nonzero"/></clipPath><clipPath id="c2a50c9934"><path d="M 339.738281 285.84375 L 357.476562 285.84375 L 357.476562 306.355469 L 339.738281 306.355469 Z M 339.738281 285.84375 " clip-rule="nonzero"/></clipPath><clipPath id="32ddf01cdc"><path d="M 339.738281 296.066406 C 339.738281 290.386719 344.1875 285.84375 350.113281 285.84375 C 352.75 285.84375 355.175781 286.796875 356.957031 288.390625 L 355.515625 290.046875 C 354.007812 288.757812 352.230469 288.085938 350.265625 288.085938 C 345.660156 288.085938 342.285156 291.675781 342.285156 296.066406 C 342.285156 300.484375 345.660156 304.105469 350.113281 304.105469 C 352.414062 304.105469 354.5 303.1875 355.941406 301.652344 L 357.476562 303.339844 C 355.636719 305.179688 353.058594 306.347656 350.113281 306.347656 C 344.1875 306.347656 339.738281 301.804688 339.738281 296.066406 Z M 339.738281 296.066406 " clip-rule="nonzero"/></clipPath><clipPath id="f2457a61a4"><path d="M 0.738281 0.84375 L 18.476562 0.84375 L 18.476562 21.355469 L 0.738281 21.355469 Z M 0.738281 0.84375 " clip-rule="nonzero"/></clipPath><clipPath id="3ca1232715"><path d="M 0.738281 11.066406 C 0.738281 5.386719 5.1875 0.84375 11.113281 0.84375 C 13.75 0.84375 16.175781 1.796875 17.957031 3.390625 L 16.515625 5.046875 C 15.007812 3.757812 13.230469 3.085938 11.265625 3.085938 C 6.660156 3.085938 3.285156 6.675781 3.285156 11.066406 C 3.285156 15.484375 6.660156 19.105469 11.113281 19.105469 C 13.414062 19.105469 15.5 18.1875 16.941406 16.652344 L 18.476562 18.339844 C 16.636719 20.179688 14.058594 21.347656 11.113281 21.347656 C 5.1875 21.347656 0.738281 16.804688 0.738281 11.066406 Z M 0.738281 11.066406 " clip-rule="nonzero"/></clipPath><clipPath id="95db12a1e6"><rect x="0" width="19" y="0" height="22"/></clipPath><clipPath id="42c51148ca"><path d="M 367.34375 286.113281 L 369.808594 286.113281 L 369.808594 306.078125 L 367.34375 306.078125 Z M 367.34375 286.113281 " clip-rule="nonzero"/></clipPath><clipPath id="04cb15f23c"><path d="M 0.34375 0.113281 L 2.808594 0.113281 L 2.808594 20.078125 L 0.34375 20.078125 Z M 0.34375 0.113281 " clip-rule="nonzero"/></clipPath><clipPath id="b67cddd61e"><rect x="0" width="3" y="0" height="21"/></clipPath><clipPath id="54c58f7526"><path d="M 380.660156 285.84375 L 401.640625 285.84375 L 401.640625 306 L 380.660156 306 Z M 380.660156 285.84375 " clip-rule="nonzero"/></clipPath><clipPath id="b4e13c6960"><path d="M 411.226562 285.78125 L 426.9375 285.78125 L 426.9375 306.378906 L 411.226562 306.378906 Z M 411.226562 285.78125 " clip-rule="nonzero"/></clipPath><clipPath id="300921ee99"><path d="M 411.289062 303.238281 L 412.332031 301.398438 C 413.925781 302.964844 416.074219 304.097656 419.082031 304.097656 C 421.660156 304.097656 424.359375 302.964844 424.359375 300.507812 C 424.359375 298.238281 421.78125 297.5625 419.234375 296.917969 C 415.675781 296.03125 412.117188 294.894531 412.117188 291.210938 C 412.117188 287.652344 415.523438 285.84375 419.082031 285.84375 C 421.535156 285.84375 423.773438 286.457031 425.769531 288.054688 L 424.757812 289.921875 C 422.976562 288.542969 420.984375 288.082031 419.082031 288.082031 C 417.117188 288.082031 414.601562 289.003906 414.601562 291.210938 C 414.601562 293.269531 416.871094 293.941406 419.542969 294.617188 C 423.222656 295.539062 426.933594 296.796875 426.933594 300.507812 C 426.933594 304.589844 422.855469 306.335938 419.050781 306.335938 C 415.125 306.335938 412.730469 304.773438 411.289062 303.238281 Z M 411.289062 303.238281 " clip-rule="nonzero"/></clipPath><clipPath id="ff0f70b6e1"><path d="M 0.226562 0.78125 L 15.9375 0.78125 L 15.9375 21.378906 L 0.226562 21.378906 Z M 0.226562 0.78125 " clip-rule="nonzero"/></clipPath><clipPath id="103dabcf26"><path d="M 0.289062 18.238281 L 1.332031 16.398438 C 2.925781 17.964844 5.074219 19.097656 8.082031 19.097656 C 10.660156 19.097656 13.359375 17.964844 13.359375 15.507812 C 13.359375 13.238281 10.78125 12.5625 8.234375 11.917969 C 4.675781 11.03125 1.117188 9.894531 1.117188 6.210938 C 1.117188 2.652344 4.523438 0.84375 8.082031 0.84375 C 10.535156 0.84375 12.773438 1.457031 14.769531 3.054688 L 13.757812 4.921875 C 11.976562 3.542969 9.984375 3.082031 8.082031 3.082031 C 6.117188 3.082031 3.601562 4.003906 3.601562 6.210938 C 3.601562 8.269531 5.871094 8.941406 8.542969 9.617188 C 12.222656 10.539062 15.933594 11.796875 15.933594 15.507812 C 15.933594 19.589844 11.855469 21.335938 8.050781 21.335938 C 4.125 21.335938 1.730469 19.773438 0.289062 18.238281 Z M 0.289062 18.238281 " clip-rule="nonzero"/></clipPath><clipPath id="cb489ef982"><rect x="0" width="16" y="0" height="22"/></clipPath><clipPath id="be8b5817af"><path d="M 163 0 L 304 0 L 304 129 L 163 129 Z M 163 0 " clip-rule="nonzero"/></clipPath><clipPath id="19071ebd79"><path d="M 210.070312 6.09375 C 214.917969 4.222656 219.867188 2.660156 225.003906 1.636719 C 232.816406 0.0820312 240.679688 -0.355469 248.652344 0.28125 C 256.25 0.890625 263.589844 2.433594 270.730469 4.890625 C 271.882812 5.285156 273.035156 5.6875 274.1875 6.089844 C 277.074219 7.488281 280.03125 8.769531 282.832031 10.308594 C 290.875 14.738281 297.730469 20.359375 303.53125 27.101562 C 304.828125 28.609375 303.136719 30.78125 301.25 30.03125 C 294.65625 27.417969 284.636719 23.796875 277.914062 23.269531 C 264.65625 22.222656 252.066406 24.367188 240.382812 30.335938 C 225.976562 37.699219 215.996094 48.667969 211.550781 63.625 C 208.726562 73.140625 208.851562 82.699219 213.183594 91.886719 C 216.292969 98.476562 221.324219 103.28125 228.980469 105.175781 C 233.609375 106.324219 238.269531 106.195312 242.785156 104.6875 C 248.558594 102.761719 252.917969 96.386719 253.144531 90.050781 C 253.308594 85.445312 251.863281 81.191406 250.300781 76.929688 C 249.808594 75.589844 249.253906 74.222656 249.097656 72.828125 C 248.570312 68.179688 251.984375 65.28125 257.105469 66.019531 C 262.496094 66.796875 266.367188 69.617188 268.324219 74.371094 C 271.261719 81.496094 271.128906 88.742188 268.617188 95.976562 C 263.207031 111.5625 251.332031 120.882812 235.328125 126.175781 C 228.53125 128.425781 221.511719 129.332031 214.363281 128.679688 C 194.433594 126.863281 179.605469 117.632812 170.070312 100.925781 C 166.519531 94.714844 164.320312 87.894531 163.5625 80.847656 C 161.78125 64.28125 165.992188 49.074219 175.074219 34.957031 C 183.355469 22.082031 194.917969 12.628906 209.480469 6.398438 C 209.683594 6.308594 209.875 6.195312 210.070312 6.09375 Z M 210.070312 6.09375 " clip-rule="nonzero"/></clipPath><clipPath id="bc5e199205"><path d="M 0.140625 0 L 141 0 L 141 129 L 0.140625 129 Z M 0.140625 0 " clip-rule="nonzero"/></clipPath><clipPath id="3f7d27d8b5"><path d="M 47.070312 6.09375 C 51.917969 4.222656 56.867188 2.660156 62.003906 1.636719 C 69.816406 0.0820312 77.679688 -0.355469 85.652344 0.28125 C 93.25 0.890625 100.589844 2.433594 107.730469 4.890625 C 108.882812 5.285156 110.035156 5.6875 111.1875 6.089844 C 114.074219 7.488281 117.03125 8.769531 119.832031 10.308594 C 127.875 14.738281 134.730469 20.359375 140.53125 27.101562 C 141.828125 28.609375 140.136719 30.78125 138.25 30.03125 C 131.65625 27.417969 121.636719 23.796875 114.914062 23.269531 C 101.65625 22.222656 89.066406 24.367188 77.382812 30.335938 C 62.976562 37.699219 52.996094 48.667969 48.550781 63.625 C 45.726562 73.140625 45.851562 82.699219 50.183594 91.886719 C 53.292969 98.476562 58.324219 103.28125 65.980469 105.175781 C 70.609375 106.324219 75.269531 106.195312 79.785156 104.6875 C 85.558594 102.761719 89.917969 96.386719 90.144531 90.050781 C 90.308594 85.445312 88.863281 81.191406 87.300781 76.929688 C 86.808594 75.589844 86.253906 74.222656 86.097656 72.828125 C 85.570312 68.179688 88.984375 65.28125 94.105469 66.019531 C 99.496094 66.796875 103.367188 69.617188 105.324219 74.371094 C 108.261719 81.496094 108.128906 88.742188 105.617188 95.976562 C 100.207031 111.5625 88.332031 120.882812 72.328125 126.175781 C 65.53125 128.425781 58.511719 129.332031 51.363281 128.679688 C 31.433594 126.863281 16.605469 117.632812 7.070312 100.925781 C 3.519531 94.714844 1.320312 87.894531 0.5625 80.847656 C -1.21875 64.28125 2.992188 49.074219 12.074219 34.957031 C 20.355469 22.082031 31.917969 12.628906 46.480469 6.398438 C 46.683594 6.308594 46.875 6.195312 47.070312 6.09375 Z M 47.070312 6.09375 " clip-rule="nonzero"/></clipPath><clipPath id="7b86246f01"><rect x="0" width="141" y="0" height="129"/></clipPath><clipPath id="caa5c794c0"><path d="M 183.164062 32.328125 L 326.941406 32.328125 L 326.941406 163.164062 L 183.164062 163.164062 Z M 183.164062 32.328125 " clip-rule="nonzero"/></clipPath><clipPath id="e181614967"><path d="M 183.664062 132.824219 C 182.589844 131.285156 184.429688 129.417969 186.101562 130.339844 C 186.125 130.351562 186.144531 130.363281 186.167969 130.375 C 193.445312 134.386719 201.230469 137.214844 209.605469 138.136719 C 229.234375 140.296875 246.964844 135.875 262.351562 123.957031 C 271.261719 117.054688 277.945312 108.679688 281.273438 98.183594 C 284.371094 88.425781 284.570312 78.664062 280.503906 69.089844 C 276.730469 60.207031 269.734375 54.75 259.621094 53.441406 C 253.464844 52.644531 247.335938 53.441406 242.441406 57.554688 C 237.371094 61.816406 236.230469 67.433594 237.019531 73.527344 C 237.605469 78.0625 239.363281 82.339844 240.347656 86.789062 C 241.015625 89.808594 239.988281 91.5625 236.871094 92.507812 C 233.214844 93.621094 229.339844 92.105469 227.164062 88.78125 C 225.082031 85.601562 224 82.082031 223.609375 78.445312 C 222.96875 72.398438 223.378906 66.410156 225.699219 60.632812 C 229.078125 52.214844 235.125 45.914062 243.136719 41.179688 C 251.347656 36.324219 260.335938 33.308594 270.132812 32.636719 C 279.457031 31.996094 288.835938 33.730469 297.257812 37.621094 C 312.609375 44.710938 321.113281 56.820312 324.988281 72.230469 C 326.402344 77.871094 326.984375 83.628906 326.683594 89.402344 C 326.007812 102.480469 322.136719 114.707031 314.910156 125.925781 C 306.195312 139.457031 294.039062 149.472656 278.882812 156.257812 C 270.636719 159.949219 261.925781 162.234375 252.773438 162.855469 C 227.246094 164.585938 205.886719 156.375 188.492188 138.921875 C 187.003906 137.429688 185.226562 135.070312 183.664062 132.824219 Z M 183.664062 132.824219 " clip-rule="nonzero"/></clipPath><clipPath id="7f43a3f7de"><path d="M 0.285156 0.375 L 143.929688 0.375 L 143.929688 131.164062 L 0.285156 131.164062 Z M 0.285156 0.375 " clip-rule="nonzero"/></clipPath><clipPath id="05bb4a221e"><path d="M 0.664062 100.824219 C -0.410156 99.285156 1.429688 97.417969 3.101562 98.339844 C 3.125 98.351562 3.144531 98.363281 3.167969 98.375 C 10.445312 102.386719 18.230469 105.214844 26.605469 106.136719 C 46.234375 108.296875 63.964844 103.875 79.351562 91.957031 C 88.261719 85.054688 94.945312 76.679688 98.273438 66.183594 C 101.371094 56.425781 101.570312 46.664062 97.503906 37.089844 C 93.730469 28.207031 86.734375 22.75 76.621094 21.441406 C 70.464844 20.644531 64.335938 21.441406 59.441406 25.554688 C 54.371094 29.816406 53.230469 35.433594 54.019531 41.527344 C 54.605469 46.0625 56.363281 50.339844 57.347656 54.789062 C 58.015625 57.808594 56.988281 59.5625 53.871094 60.507812 C 50.214844 61.621094 46.339844 60.105469 44.164062 56.78125 C 42.082031 53.601562 41 50.082031 40.609375 46.445312 C 39.96875 40.398438 40.378906 34.410156 42.699219 28.632812 C 46.078125 20.214844 52.125 13.914062 60.136719 9.179688 C 68.347656 4.324219 77.335938 1.308594 87.132812 0.636719 C 96.457031 -0.00390625 105.835938 1.730469 114.257812 5.621094 C 129.609375 12.710938 138.113281 24.820312 141.988281 40.230469 C 143.402344 45.871094 143.984375 51.628906 143.683594 57.402344 C 143.007812 70.480469 139.136719 82.707031 131.910156 93.925781 C 123.195312 107.457031 111.039062 117.472656 95.882812 124.257812 C 87.636719 127.949219 78.925781 130.234375 69.773438 130.855469 C 44.246094 132.585938 22.886719 124.375 5.492188 106.921875 C 4.003906 105.429688 2.226562 103.070312 0.664062 100.824219 Z M 0.664062 100.824219 " clip-rule="nonzero"/></clipPath><clipPath id="d03bd5f196"><rect x="0" width="144" y="0" height="132"/></clipPath></defs><g clip-path="url(#42719f4601)"><path fill="#7fa9ae" d="M 50.820312 224.234375 C 50.820312 231.855469 48.722656 237.894531 44.582031 242.191406 C 40.453125 246.480469 33.976562 248.652344 25.339844 248.652344 C 23.777344 248.652344 22.503906 248.636719 21.4375 248.597656 C 20.625 248.570312 19.878906 248.53125 19.203125 248.480469 L 19.203125 200.1875 C 20.144531 200.082031 21.140625 200.015625 22.175781 199.984375 C 23.464844 199.945312 24.722656 199.925781 25.910156 199.925781 C 34.546875 199.925781 40.925781 201.988281 44.867188 206.050781 C 48.816406 210.121094 50.820312 216.238281 50.820312 224.234375 M 67.277344 205.761719 C 65.117188 200.632812 61.992188 196.359375 57.976562 193.058594 C 53.976562 189.769531 49.121094 187.328125 43.558594 185.800781 C 38.019531 184.285156 31.777344 183.515625 25 183.515625 C 21.824219 183.515625 17.960938 183.648438 13.523438 183.914062 C 9.082031 184.175781 4.75 184.695312 0.640625 185.449219 L 0.078125 185.554688 L 0.078125 263.015625 L 0.628906 263.128906 C 4.71875 263.957031 8.960938 264.515625 13.238281 264.78125 C 17.492188 265.042969 21.257812 265.179688 24.429688 265.179688 C 31.4375 265.179688 37.859375 264.332031 43.515625 262.660156 C 49.191406 260.984375 54.082031 258.425781 58.042969 255.0625 C 62.011719 251.691406 65.121094 247.382812 67.277344 242.253906 C 69.425781 237.140625 70.515625 231.078125 70.515625 224.234375 C 70.515625 217.089844 69.425781 210.878906 67.277344 205.761719 " fill-opacity="1" fill-rule="nonzero"/></g><g clip-path="url(#292a8185c8)"><g clip-path="url(#0e4fb3714a)"><g transform="matrix(1, 0, 0, 1, 78, 183)"><g clip-path="url(#8fc13d00c1)"><g clip-path="url(#6a647db331)"><g clip-path="url(#2114bf4136)"><path fill="#7fa9ae" d="M 0.230469 0.515625 L 74.320312 0.515625 L 74.320312 82.335938 L 0.230469 82.335938 Z M 0.230469 0.515625 " fill-opacity="1" fill-rule="nonzero"/></g></g></g></g></g></g><g clip-path="url(#598248ffc9)"><path fill="#7fa9ae" d="M 218.394531 224.238281 C 218.394531 227.894531 217.945312 231.230469 217.050781 234.15625 C 216.167969 237.054688 214.882812 239.574219 213.230469 241.644531 C 211.597656 243.695312 209.550781 245.300781 207.15625 246.410156 C 204.75 247.527344 201.996094 248.09375 198.976562 248.09375 C 195.882812 248.09375 193.113281 247.527344 190.746094 246.414062 C 188.378906 245.300781 186.355469 243.699219 184.71875 241.644531 C 183.066406 239.574219 181.78125 237.054688 180.898438 234.15625 C 180.007812 231.234375 179.554688 227.898438 179.554688 224.238281 C 179.554688 220.648438 180.007812 217.332031 180.898438 214.371094 C 181.785156 211.4375 183.070312 208.898438 184.71875 206.828125 C 186.359375 204.773438 188.386719 203.152344 190.753906 202 C 193.121094 200.855469 195.886719 200.273438 198.976562 200.273438 C 201.996094 200.273438 204.746094 200.839844 207.15625 201.953125 C 209.550781 203.066406 211.597656 204.667969 213.230469 206.71875 C 214.878906 208.789062 216.164062 211.328125 217.050781 214.261719 C 217.941406 217.222656 218.394531 220.578125 218.394531 224.238281 M 235.234375 206.484375 C 233.195312 201.382812 230.351562 197.027344 226.785156 193.535156 C 223.214844 190.046875 218.980469 187.390625 214.207031 185.648438 C 209.449219 183.914062 204.328125 183.03125 198.976562 183.03125 C 193.769531 183.03125 188.738281 183.914062 184.019531 185.648438 C 179.28125 187.394531 175.050781 190.046875 171.449219 193.53125 C 167.84375 197.019531 164.945312 201.375 162.832031 206.472656 C 160.71875 211.570312 159.644531 217.546875 159.644531 224.238281 C 159.644531 230.925781 160.679688 236.898438 162.714844 241.988281 C 164.761719 247.097656 167.605469 251.4375 171.171875 254.886719 C 174.738281 258.339844 178.96875 260.972656 183.746094 262.714844 C 188.503906 264.453125 193.628906 265.332031 198.976562 265.332031 C 204.46875 265.332031 209.6875 264.453125 214.480469 262.71875 C 219.300781 260.972656 223.515625 258.335938 227.011719 254.878906 C 230.5 251.425781 233.289062 247.089844 235.292969 241.984375 C 237.292969 236.886719 238.304688 230.917969 238.304688 224.238281 C 238.304688 217.550781 237.273438 211.578125 235.234375 206.484375 " fill-opacity="1" fill-rule="nonzero"/></g><g clip-path="url(#16d21d0177)"><g transform="matrix(1, 0, 0, 1, 247, 183)"><g clip-path="url(#80433a4195)"><g clip-path="url(#a346743b5e)"><path fill="#417572" d="M 0.585938 0.515625 L 61.082031 0.515625 L 61.082031 82.375 L 0.585938 82.375 Z M 0.585938 0.515625 " fill-opacity="1" fill-rule="nonzero"/></g></g></g></g><g clip-path="url(#dce9d45913)"><g transform="matrix(1, 0, 0, 1, 320, 183)"><g clip-path="url(#fa6c60cae1)"><g clip-path="url(#95835f93bb)"><path fill="#417572" d="M 0.0351562 0.515625 L 20.417969 0.515625 L 20.417969 82.367188 L 0.0351562 82.367188 Z M 0.0351562 0.515625 " fill-opacity="1" fill-rule="nonzero"/></g></g></g></g><g clip-path="url(#16db02ad34)"><g transform="matrix(1, 0, 0, 1, 352, 183)"><g clip-path="url(#8418f634d3)"><g clip-path="url(#5d93fc1a39)"><path fill="#417572" d="M 0.355469 0.515625 L 60.984375 0.515625 L 60.984375 82.3125 L 0.355469 82.3125 Z M 0.355469 0.515625 " fill-opacity="1" fill-rule="nonzero"/></g></g></g></g><g clip-path="url(#71058b8db6)"><g transform="matrix(1, 0, 0, 1, 424, 183)"><g clip-path="url(#bdedba759a)"><g clip-path="url(#163e8283bf)"><path fill="#417572" d="M 0.992188 0.515625 L 65.148438 0.515625 L 65.148438 82.285156 L 0.992188 82.285156 Z M 0.992188 0.515625 " fill-opacity="1" fill-rule="nonzero"/></g></g></g></g><g clip-path="url(#a580d20a18)"><g transform="matrix(1, 0, 0, 1, 60, 286)"><g clip-path="url(#42be686020)"><g clip-path="url(#8413a138a2)"><path fill="#b3b3b3" d="M 0.96875 0.113281 L 17.335938 0.113281 L 17.335938 19.933594 L 0.96875 19.933594 Z M 0.96875 0.113281 " fill-opacity="1" fill-rule="nonzero"/></g></g></g></g><g clip-path="url(#f78c531d00)"><g clip-path="url(#4f7c84fb0e)"><g transform="matrix(1, 0, 0, 1, 88, 286)"><g clip-path="url(#41cbcf92e9)"><g clip-path="url(#0b63c98416)"><g clip-path="url(#b6944ada44)"><path fill="#b3b3b3" d="M 0.6875 0.175781 L 17.15625 0.175781 L 17.15625 20.3125 L 0.6875 20.3125 Z M 0.6875 0.175781 " fill-opacity="1" fill-rule="nonzero"/></g></g></g></g></g></g><g clip-path="url(#c875884257)"><path fill="#b3b3b3" d="M 125.523438 304.027344 C 128.566406 304.027344 130.527344 302.632812 130.527344 300.0625 C 130.527344 297.644531 128.75 296.03125 126.128906 296.03125 L 119.015625 296.03125 L 119.015625 304.027344 Z M 125.796875 293.890625 C 127.542969 293.890625 128.597656 292.714844 128.597656 291.105469 C 128.597656 289.335938 127.453125 288.285156 125.402344 288.285156 L 119.015625 288.285156 L 119.015625 293.890625 Z M 116.605469 286.113281 L 125.554688 286.113281 C 128.808594 286.113281 131.128906 287.695312 131.128906 290.917969 C 131.128906 292.59375 130.164062 294.078125 128.929688 294.636719 C 131.128906 295.101562 133.058594 297.207031 133.058594 300.027344 C 133.058594 303.964844 130.136719 306.195312 125.675781 306.195312 L 116.605469 306.195312 Z M 116.605469 286.113281 " fill-opacity="1" fill-rule="nonzero"/></g><g clip-path="url(#6feecc7cb9)"><path fill="#b3b3b3" d="M 165.152344 304.027344 C 169.921875 304.027344 173.128906 300.679688 173.128906 296.15625 C 173.128906 291.632812 169.921875 288.285156 165.152344 288.285156 L 160.230469 288.285156 L 160.230469 304.027344 Z M 157.789062 286.113281 L 165.304688 286.113281 C 171.660156 286.113281 175.664062 290.667969 175.664062 296.15625 C 175.664062 301.640625 171.660156 306.195312 165.304688 306.195312 L 157.789062 306.195312 Z M 157.789062 286.113281 " fill-opacity="1" fill-rule="nonzero"/></g><g clip-path="url(#6a4455f97d)"><g transform="matrix(1, 0, 0, 1, 186, 286)"><g clip-path="url(#cd94ab3303)"><g clip-path="url(#b4a5d3685f)"><path fill="#b3b3b3" d="M 0.558594 0.113281 L 16.023438 0.113281 L 16.023438 19.929688 L 0.558594 19.929688 Z M 0.558594 0.113281 " fill-opacity="1" fill-rule="nonzero"/></g></g></g></g><g clip-path="url(#50733fddf2)"><g clip-path="url(#d4bf727405)"><g transform="matrix(1, 0, 0, 1, 226, 286)"><g clip-path="url(#d493f1ad59)"><g clip-path="url(#2f80ea4400)"><g clip-path="url(#0806015cc8)"><path fill="#b3b3b3" d="M 0.0546875 0.113281 L 16.960938 0.113281 L 16.960938 19.992188 L 0.0546875 19.992188 Z M 0.0546875 0.113281 " fill-opacity="1" fill-rule="nonzero"/></g></g></g></g></g></g><g clip-path="url(#40cdb034fc)"><g transform="matrix(1, 0, 0, 1, 254, 286)"><g clip-path="url(#ac15f46186)"><g clip-path="url(#5826f82b51)"><path fill="#b3b3b3" d="M 0.613281 0.113281 L 16.082031 0.113281 L 16.082031 19.992188 L 0.613281 19.992188 Z M 0.613281 0.113281 " fill-opacity="1" fill-rule="nonzero"/></g></g></g></g><g clip-path="url(#7fe342fd4c)"><g clip-path="url(#0c296c3b55)"><g transform="matrix(1, 0, 0, 1, 279, 285)"><g clip-path="url(#687f40c79f)"><g clip-path="url(#1331b3f7b6)"><g clip-path="url(#c63e64729a)"><path fill="#b3b3b3" d="M 0.519531 0.84375 L 19.492188 0.84375 L 19.492188 21.371094 L 0.519531 21.371094 Z M 0.519531 0.84375 " fill-opacity="1" fill-rule="nonzero"/></g></g></g></g></g></g><g clip-path="url(#fd498bbe1c)"><path fill="#b3b3b3" d="M 320.6875 280.589844 L 323.261719 280.589844 L 320.347656 284.621094 L 318.175781 284.621094 Z M 327.480469 295.949219 C 327.480469 291.585938 324.070312 288.042969 319.601562 288.042969 C 315.105469 288.042969 311.691406 291.585938 311.691406 295.949219 C 311.691406 300.3125 315.105469 303.855469 319.601562 303.855469 C 324.070312 303.855469 327.480469 300.3125 327.480469 295.949219 M 309.117188 295.949219 C 309.117188 290.316406 313.617188 285.832031 319.601562 285.832031 C 325.558594 285.832031 330.054688 290.316406 330.054688 295.949219 C 330.054688 301.582031 325.558594 306.066406 319.601562 306.066406 C 313.617188 306.066406 309.117188 301.582031 309.117188 295.949219 " fill-opacity="1" fill-rule="nonzero"/></g><g clip-path="url(#c2a50c9934)"><g clip-path="url(#32ddf01cdc)"><g transform="matrix(1, 0, 0, 1, 339, 285)"><g clip-path="url(#95db12a1e6)"><g clip-path="url(#f2457a61a4)"><g clip-path="url(#3ca1232715)"><path fill="#b3b3b3" d="M 0.738281 0.84375 L 18.476562 0.84375 L 18.476562 21.355469 L 0.738281 21.355469 Z M 0.738281 0.84375 " fill-opacity="1" fill-rule="nonzero"/></g></g></g></g></g></g><g clip-path="url(#42c51148ca)"><g transform="matrix(1, 0, 0, 1, 367, 286)"><g clip-path="url(#b67cddd61e)"><g clip-path="url(#04cb15f23c)"><path fill="#b3b3b3" d="M 0.34375 0.113281 L 2.808594 0.113281 L 2.808594 20.078125 L 0.34375 20.078125 Z M 0.34375 0.113281 " fill-opacity="1" fill-rule="nonzero"/></g></g></g></g><g clip-path="url(#54c58f7526)"><path fill="#b3b3b3" d="M 399.023438 295.921875 C 399.023438 291.578125 395.609375 288.046875 391.144531 288.046875 C 386.644531 288.046875 383.234375 291.578125 383.234375 295.921875 C 383.234375 300.265625 386.644531 303.796875 391.144531 303.796875 C 395.609375 303.796875 399.023438 300.265625 399.023438 295.921875 M 380.660156 295.921875 C 380.660156 290.3125 385.15625 285.847656 391.144531 285.847656 C 397.101562 285.847656 401.597656 290.3125 401.597656 295.921875 C 401.597656 301.535156 397.101562 306 391.144531 306 C 385.15625 306 380.660156 301.535156 380.660156 295.921875 " fill-opacity="1" fill-rule="nonzero"/></g><g clip-path="url(#b4e13c6960)"><g clip-path="url(#300921ee99)"><g transform="matrix(1, 0, 0, 1, 411, 285)"><g clip-path="url(#cb489ef982)"><g clip-path="url(#ff0f70b6e1)"><g clip-path="url(#103dabcf26)"><path fill="#b3b3b3" d="M 0.289062 0.84375 L 15.9375 0.84375 L 15.9375 21.320312 L 0.289062 21.320312 Z M 0.289062 0.84375 " fill-opacity="1" fill-rule="nonzero"/></g></g></g></g></g></g><g clip-path="url(#be8b5817af)"><g clip-path="url(#19071ebd79)"><g transform="matrix(1, 0, 0, 1, 163, 0)"><g clip-path="url(#7b86246f01)"><g clip-path="url(#bc5e199205)"><g clip-path="url(#3f7d27d8b5)"><path fill="#417572" d="M 0.160156 0 L 140.910156 0 L 140.910156 128.886719 L 0.160156 128.886719 Z M 0.160156 0 " fill-opacity="1" fill-rule="nonzero"/></g></g></g></g></g></g><g clip-path="url(#caa5c794c0)"><g clip-path="url(#e181614967)"><g transform="matrix(1, 0, 0, 1, 183, 32)"><g clip-path="url(#d03bd5f196)"><g clip-path="url(#7f43a3f7de)"><g clip-path="url(#05bb4a221e)"><path fill="#7fa9ae" d="M 0.34375 0.507812 L 143.761719 0.507812 L 143.761719 131.164062 L 0.34375 131.164062 Z M 0.34375 0.507812 " fill-opacity="1" fill-rule="nonzero"/></g></g></g></g></g></g></svg>